<?xml version="1.0" encoding="UTF-8"?>
<svg width="403px" height="380px" viewBox="0 0 403 380" version="1.1" xmlns="http://www.w3.org/2000/svg" xmlns:xlink="http://www.w3.org/1999/xlink">
    <!-- Generator: Sketch 52.2 (67145) - http://www.bohemiancoding.com/sketch -->
    <title>icons</title>
    <desc>Created with Sketch.</desc>
    <g id="icons" stroke="none" stroke-width="1" fill="none" fill-rule="evenodd">
        <g id="Guests" transform="translate(100.000000, 86.000000)">
            <g id="Guest" transform="translate(120.000000, 34.000000)" fill="#A1A1A1">
                <path d="M40,24.8 C59.1452991,24.8 72.4786325,61.0666667 80,133.6 L0,133.6 C7.52136752,61.0666667 20.8547009,24.8 40,24.8 Z" id="Rectangle"></path>
                <circle id="Oval" stroke="#FFFFFF" stroke-width="6" cx="40" cy="24" r="24"></circle>
            </g>
            <g id="Guest">
                <g transform="translate(0.000000, 34.000000)" fill="#A1A1A1">
                    <path d="M40,24.8 C59.1452991,24.8 72.4786325,61.0666667 80,133.6 L0,133.6 C7.52136752,61.0666667 20.8547009,24.8 40,24.8 Z" id="Rectangle"></path>
                    <circle id="Oval" stroke="#FFFFFF" stroke-width="6" cx="40" cy="24" r="24"></circle>
                </g>
                <path d="M100,31.7 C123.931624,31.7 140.598291,77.0333333 150,167.7 L50,167.7 C59.4017094,77.0333333 76.0683761,31.7 100,31.7 Z" id="Rectangle" fill="#333333"></path>
                <circle id="Oval" stroke="#FFFFFF" stroke-width="6" fill="#333333" cx="100" cy="30" r="30"></circle>
            </g>
        </g>
    </g>
</svg>