<?xml version="1.0" encoding="UTF-8"?>
<svg width="403px" height="380px" viewBox="0 0 403 380" version="1.1" xmlns="http://www.w3.org/2000/svg" xmlns:xlink="http://www.w3.org/1999/xlink">
    <!-- Generator: Sketch 52.2 (67145) - http://www.bohemiancoding.com/sketch -->
    <title>icons</title>
    <desc>Created with Sketch.</desc>
    <g id="icons" stroke="none" stroke-width="1" fill="none" fill-rule="evenodd">
        <g id="Guests" transform="translate(103.000000, 112.000000)" fill="#333333">
            <g id="Guest" opacity="0.53234282" transform="translate(0.000000, 12.000000)">
                <path d="M35.5,35.581158 C50.1333159,35.2599579 50.0082886,22.2714073 53.96,27.0579827 C60.7256855,35.2530307 66.4056855,60.5147751 71,102.843216 C65.5566667,109.614405 53.7233333,113 35.5,113 C17.2766667,113 5.44333333,109.614405 0,102.843216 C4.43502205,60.3126684 10.115022,35.0509239 17.04,27.0579827 C20.8666841,22.6411512 20.8666841,35.9023581 35.5,35.581158 Z" id="Rectangle"></path>
                <circle id="Oval" cx="35" cy="15" r="15"></circle>
            </g>
            <g id="Guest" opacity="0.53234282" transform="translate(124.000000, 12.000000)">
                <path d="M35.5,35.581158 C50.1333159,35.2599579 50.0082886,22.2714073 53.96,27.0579827 C60.7256855,35.2530307 66.4056855,60.5147751 71,102.843216 C65.5566667,109.614405 53.7233333,113 35.5,113 C17.2766667,113 5.44333333,109.614405 0,102.843216 C4.43502205,60.3126684 10.115022,35.0509239 17.04,27.0579827 C20.8666841,22.6411512 20.8666841,35.9023581 35.5,35.581158 Z" id="Rectangle"></path>
                <circle id="Oval" cx="35" cy="15" r="15"></circle>
            </g>
            <g id="Guest" transform="translate(47.000000, 0.000000)">
                <path d="M50,47 C70.610304,46.547774 70.4342093,28.260856 76,35 C85.5291345,46.538021 93.5291345,82.1046877 100,141.7 C92.3333333,151.233333 75.6666667,156 50,156 C24.3333333,156 7.66666667,151.233333 0,141.7 C6.24650992,81.8201363 14.2465099,46.2534697 24,35 C29.389696,28.781428 29.389696,47.452226 50,47 Z" id="Rectangle"></path>
                <circle id="Oval" cx="49.5" cy="20.5" r="20.5"></circle>
            </g>
        </g>
    </g>
</svg>