<?xml version="1.0" encoding="UTF-8"?>
<svg width="403px" height="380px" viewBox="0 0 403 380" version="1.1" xmlns="http://www.w3.org/2000/svg" xmlns:xlink="http://www.w3.org/1999/xlink">
    <!-- Generator: Sketch 52.2 (67145) - http://www.bohemiancoding.com/sketch -->
    <title>icons</title>
    <desc>Created with Sketch.</desc>
    <g id="icons" stroke="none" stroke-width="1" fill="none" fill-rule="evenodd">
        <g id="Kitchen" transform="translate(35.000000, 11.000000)">
            <path d="M72.751004,163.623809 C70.497992,168.622946 64.0080321,262.712989 75.0040161,265.106494 C86,267.5 246,267.5 255.24498,265.106494 C264.48996,262.712989 260.87751,168.285215 258.061245,163.623809 C255.24498,158.962404 75.0040161,158.624673 72.751004,163.623809 Z" id="Path-8" fill="#333333"></path>
            <path d="M78.3471138,115.009184 C89.8443769,118.345385 240.031075,152.498999 254.347114,155.009184 C268.663153,157.519369 275.832362,146.709538 266.527772,138.082441 C265.003101,136.668785 213.775878,114.689259 175.527772,105.285604 C134.027772,95.0824412 80.5044106,94.764361 78.0277725,95.0824412 C64.3874258,96.8343017 66.8498507,111.672983 78.3471138,115.009184 Z" id="Path-9" fill="#333333" transform="translate(169.720821, 125.194550) rotate(-6.000000) translate(-169.720821, -125.194550) "></path>
            <path d="M162.18613,87.5615984 C151.02609,89.2237605 142.7197,98.735932 142.576206,110.018157 L142.552821,111.856855 C142.552171,111.907973 142.551846,111.959095 142.551846,112.010217 C142.551846,118.670244 147.950865,124.069263 154.610892,124.069263 L181.028335,124.069263 C187.890241,124.069263 193.477233,118.552878 193.5645,111.691527 L193.574599,110.897433 C193.71293,100.021181 186.213316,90.5350338 175.598661,88.1599402 C172.982171,87.5744851 170.383627,87.256355 167.797112,87.2029559 C165.9215,87.1642335 164.05246,87.2836296 162.18613,87.5615984 Z" id="Rectangle" stroke="#333333" stroke-width="13" transform="translate(168.071639, 105.632554) rotate(5.000000) translate(-168.071639, -105.632554) "></path>
            <path d="M248.223823,191.391782 L274.18264,176.761822 C279.814899,173.587575 287.178702,175.213478 290.630155,180.39338 C294.081607,185.573282 292.313714,192.345658 286.681456,195.519906 L260.722639,210.149866 C255.09038,213.324114 247.726577,211.69821 244.275124,206.518308 C240.823672,201.338406 242.591564,194.56603 248.223823,191.391782 Z" id="Rectangle" fill="#333333"></path>
            <path d="M79.564919,191.391782 C85.1971778,194.56603 86.9650705,201.338406 83.5136179,206.518308 C80.0621653,211.69821 72.6983622,213.324114 67.0661034,210.149866 L41.1072864,195.519906 C35.4750277,192.345658 33.707135,185.573282 37.1585876,180.39338 C40.6100402,175.213478 47.9738433,173.587575 53.6061021,176.761822 L79.564919,191.391782 Z" id="Rectangle" fill="#333333"></path>
            <path d="M107.530297,145.141469 C104.85107,144.590904 24.3138784,140.562285 17.6260601,96.2844906 C13.1675145,66.765961 23.5919509,55.776944 48.8993694,63.3174398 C38.5023991,39.4335757 43.2269914,22.7246165 63.0731463,13.1905622 C80.1288582,4.99703134 111.325177,20.9669931 112.489863,25.3136593 C113.654549,29.6603255 106.560246,16.7069906 80.709045,32.2763895 C63.4749108,42.6559888 64.2393,61.0861426 83.0022128,87.5668508 C67.3182083,85.4557957 59.0949546,91.0967224 58.3324515,104.489631 C57.1886969,124.578994 110.209524,145.692034 107.530297,145.141469 Z" id="Path-10" fill="#D1D0D0" transform="translate(64.616954, 78.019854) rotate(15.000000) translate(-64.616954, -78.019854) "></path>
        </g>
    </g>
</svg>