<?xml version="1.0" encoding="UTF-8"?>
<svg width="403px" height="380px" viewBox="0 0 403 380" version="1.1" xmlns="http://www.w3.org/2000/svg" xmlns:xlink="http://www.w3.org/1999/xlink">
    <!-- Generator: Sketch 52.2 (67145) - http://www.bohemiancoding.com/sketch -->
    <title>icons</title>
    <desc>Created with Sketch.</desc>
    <g id="icons" stroke="none" stroke-width="1" fill="none" fill-rule="evenodd">
        <g id="Laundry" transform="translate(96.000000, 84.000000)">
            <rect id="Rectangle" stroke="#333333" stroke-width="16" x="8" y="8" width="196" height="196" rx="44"></rect>
            <g id="Group" transform="translate(48.000000, 72.000000)">
                <path d="M4.5,63.2751289 C-3.13027545,45.5350512 0.203057888,36.4433416 14.5,36 C35.9454132,35.3349876 51.7013892,64.2751289 72.5,63.2751289 C93.2986108,62.2751289 102.5,46 111,46 C121,46 113.780062,75.1211062 103.207081,88.2214417 C89.951751,104.645312 67.7909716,110.4773 56.3421086,113.167755 C38.5330172,117.352847 21.2523143,100.721972 4.5,63.2751289 Z" id="Path-6" fill="#636363"></path>
                <ellipse id="Oval" stroke="#333333" stroke-width="11" cx="57.5" cy="54.5" rx="53.5" ry="54.5"></ellipse>
                <circle id="Oval" fill="#636363" cx="82" cy="57" r="13"></circle>
                <circle id="Oval" fill="#636363" cx="57" cy="43" r="8"></circle>
                <circle id="Oval" fill="#636363" cx="70" cy="26" r="11"></circle>
                <path d="M105.5,29.316285 C118.833333,28.6620867 126.5,30.2233251 128.5,34 C131.5,39.6650124 131.5,73 128.5,78 C126.5,81.3333333 118.833333,83 105.5,83 C109.5,71.0571336 111.5,62.0857004 111.5,56.0857004 C111.5,50.0857004 109.5,41.162562 105.5,29.316285 Z" id="Path-2" stroke="#333333" stroke-width="12" transform="translate(118.125000, 56.085700) rotate(1.000000) translate(-118.125000, -56.085700) "></path>
            </g>
            <circle id="Oval-2" fill="#333333" cx="161" cy="33" r="14"></circle>
        </g>
        <rect id="Rectangle" fill="#333333" x="127" y="114" width="78" height="10" rx="5"></rect>
        <rect id="Rectangle" fill="#333333" x="104" y="134" width="196" height="10" rx="5"></rect>
    </g>
</svg>