<?xml version="1.0" encoding="UTF-8"?>
<svg width="403px" height="380px" viewBox="0 0 403 380" version="1.1" xmlns="http://www.w3.org/2000/svg" xmlns:xlink="http://www.w3.org/1999/xlink">
    <!-- Generator: Sketch 52.2 (67145) - http://www.bohemiancoding.com/sketch -->
    <title>icons</title>
    <desc>Created with Sketch.</desc>
    <g id="icons" stroke="none" stroke-width="1" fill="none" fill-rule="evenodd">
        <g id="Group-2" transform="translate(122.000000, 106.000000)" fill="#434242">
            <polygon id="Rectangle" points="23.5 5.5067062e-14 37 -2.27097854e-13 29 159 10 159"></polygon>
            <rect id="Rectangle" x="0" y="142" width="39" height="17"></rect>
        </g>
        <g id="Group-2" transform="translate(258.500000, 185.500000) scale(-1, 1) translate(-258.500000, -185.500000) translate(239.000000, 106.000000)" fill="#434242">
            <polygon id="Rectangle" points="21.5 1.4033219e-13 37 -1.42108547e-13 29 159 10 159"></polygon>
            <rect id="Rectangle" x="0" y="142" width="39" height="17"></rect>
        </g>
        <rect id="Rectangle" fill="#434242" transform="translate(201.500000, 114.500000) rotate(90.000000) translate(-201.500000, -114.500000) " x="193" y="69" width="17" height="91"></rect>
        <path d="M227.729703,177.632768 C228.275207,182.303225 227.998116,186.239155 226.870308,189.440678 C225.705011,192.642201 223.911543,195.222212 221.488799,197.180791 C219.027168,199.139369 216.086375,200.570617 212.677894,201.474576 C209.245943,202.378536 205.643134,202.830508 201.886959,202.830508 L193.179508,202.830508 L192.487163,233 L173,233 L180.059223,153 L201.746904,153 C204.972268,153 208.006205,153.433141 210.865511,154.299435 C213.747088,155.165729 216.324767,156.559312 218.609425,158.480226 C220.930756,160.40114 222.887011,162.924655 224.476408,166.050847 C226.100023,169.17704 227.192998,173.037642 227.729703,177.632768 Z M211.979068,177.215569 C211.883931,175.319352 211.506605,173.764477 210.851594,172.550898 C210.2026,171.337319 209.364059,170.389225 208.335748,169.706587 C207.313191,169.023949 206.170978,168.568863 204.906579,168.341317 C203.644605,168.113771 202.342552,168 200.99856,168 L194.424721,168 L194,187 L200.819682,187 C202.335175,187 203.785061,186.848305 205.166902,186.54491 C206.545432,186.241515 207.771894,185.710583 208.84387,184.952096 C209.909263,184.193609 210.723741,183.188629 211.28761,181.937126 C211.845273,180.685622 212.074205,179.111786 211.979068,177.215569 Z" id="P" fill="#434242"></path>
    </g>
</svg>