<?xml version="1.0" encoding="UTF-8"?>
<svg width="403px" height="380px" viewBox="0 0 403 380" version="1.1" xmlns="http://www.w3.org/2000/svg" xmlns:xlink="http://www.w3.org/1999/xlink">
    <!-- Generator: Sketch 52.2 (67145) - http://www.bohemiancoding.com/sketch -->
    <title>icons</title>
    <desc>Created with Sketch.</desc>
    <g id="icons" stroke="none" stroke-width="1" fill="none" fill-rule="evenodd">
        <g id="pool_icon" transform="translate(107.000000, 64.000000)">
            <path d="M54.4032172,38 C35.7180022,38 19.8366507,51.5783544 17.0330424,69.9510263 L0.427901105,178.768231 C0.143038532,180.634999 0,182.520458 0,184.408602 C0,205.169757 16.922775,222 37.7980758,222 L147.196699,222 C149.095223,222 150.99105,221.857743 152.868081,221.574439 C173.507059,218.459347 187.699092,199.294355 184.566874,178.768231 L167.961732,69.9510263 C165.158124,51.5783544 149.276773,38 130.591557,38 L54.4032172,38 Z" id="Rectangle" stroke="#333333" stroke-width="16"></path>
            <path d="M59.1361837,174.642723 L76.377836,158.090736 C77.8927476,156.636421 80.3489047,156.636421 81.8638163,158.090736 C83.3787279,159.545052 83.3787279,161.902962 81.8638163,163.357277 L64.622164,179.909264 C63.1072524,181.363579 60.6510953,181.363579 59.1361837,179.909264 C57.6212721,178.454948 57.6212721,176.097038 59.1361837,174.642723 Z" id="Rectangle" fill="#FFFFFF"></path>
            <path d="M85.1238792,151.449552 L87.4495518,149.123879 C88.9480575,147.625374 91.3776153,147.625374 92.8761211,149.123879 C94.3746263,150.622385 94.3746263,153.051943 92.8761211,154.550448 L90.5504485,156.876121 C89.0519428,158.374626 86.622385,158.374626 85.1238792,156.876121 C83.6253736,155.377615 83.6253736,152.948057 85.1238792,151.449552 Z" id="Rectangle" fill="#FFFFFF"></path>
            <path d="M46.1457147,171.579121 L64.3222855,154.101649 C65.8499051,152.632784 68.3266658,152.632784 69.8542853,154.101649 C71.3819049,155.570514 71.3819049,157.952014 69.8542853,159.420879 L51.6777145,176.898351 C50.1500949,178.367216 47.6733342,178.367216 46.1457147,176.898351 C44.6180951,175.429486 44.6180951,173.047986 46.1457147,171.579121 Z" id="Rectangle" fill="#FFFFFF"></path>
            <rect id="Rectangle" fill="#FFFFFF" x="64" y="13" width="56" height="48"></rect>
            <path d="M117.925391,0.701086957 C121.5,0.701086957 125.46243,1.07383173 127.5,2 C133,4.5 133,13.6041181 130.5,13.6041181 C128,13.6041181 129,8 123.5,8 C120.508252,8 117.783782,8.53105168 117.286311,17.6833942 C116.820807,26.2476203 116.788291,39.626423 117.188764,57.8198026 C117.238675,60.0874777 115.020146,61.9587209 112.233536,61.9993413 C112.203412,61.9997804 112.173284,62 112.143155,62 C109.302669,62 107,60.1261447 107,57.814627 L107.000023,13.6041181 C107.000024,8.64985314 108,0.870533112 117.925391,0.701086957 Z" id="Rectangle" fill="#333333"></path>
            <path d="M82,0.701086957 C85.5746089,0.701086957 88.9711869,1.48559344 91,2.5 C96,5 97,13.9030311 94.5,13.9030311 C92,13.9030311 92,8 87,8 C84.0082518,8 78.7837818,8.82996472 78.2863108,17.9823072 C77.820807,26.5465334 77.7882914,39.9253361 78.1887639,58.1187156 C78.2386752,60.3863907 76.020146,62.2576339 73.2335362,62.2982543 C73.2034121,62.2986935 73.1732841,62.298913 73.1431548,62.298913 C70.3026692,62.298913 68,60.4250577 68,58.11354 L68.0000229,13.9030311 C68.0000242,8.94876619 72.0746089,0.870533112 82,0.701086957 Z" id="Rectangle" fill="#333333"></path>
            <path d="M93,41 C94.656854,41 96,42.3431458 96,44 L96,60 C96,61.6568542 94.656854,63 93,63 C91.3431458,63 90,61.6568542 90,60 L90,44 C90,42.3431458 91.3431458,41 93,41 Z" id="Rectangle" fill="#333333" transform="translate(93.000000, 52.000000) rotate(90.000000) translate(-93.000000, -52.000000) "></path>
            <path d="M93,27 C94.656854,27 96,28.3431458 96,30 L96,46 C96,47.6568542 94.656854,49 93,49 C91.3431458,49 90,47.6568542 90,46 L90,30 C90,28.3431458 91.3431458,27 93,27 Z" id="Rectangle" fill="#333333" transform="translate(93.000000, 38.000000) rotate(90.000000) translate(-93.000000, -38.000000) "></path>
            <path d="M93,12 C94.656854,12 96,13.3431458 96,15 L96,31 C96,32.6568542 94.656854,34 93,34 C91.3431458,34 90,32.6568542 90,31 L90,15 C90,13.3431458 91.3431458,12 93,12 Z" id="Rectangle" fill="#333333" transform="translate(93.000000, 23.000000) rotate(90.000000) translate(-93.000000, -23.000000) "></path>
            <path d="M31,178.349609 C38.5633352,182.387456 46.0703324,183.795814 53.5209915,182.57468 C60.9716506,181.353546 68.3617595,177.503611 75.6913183,171.024877 C82.3244576,175.21518 89.1722908,176.731572 96.2348182,175.574051 C103.297345,174.416531 110.555621,170.588203 118.009647,164.089069 C123.506894,168.334497 129.168232,170.04535 134.99366,169.221629 C140.819088,168.397907 147.154535,164.990698 154,159" id="Path-7" stroke="#333333" stroke-width="11.5" stroke-linecap="round"></path>
            <path d="M45,128.307496 C50.8416004,131.511462 56.6396876,132.63038 62.3942617,131.664249 C68.1488358,130.698119 73.8566435,127.647486 79.5176849,122.512352 C84.6408412,125.836937 89.9298181,127.041328 95.3846153,126.125527 C100.839413,125.209726 106.445398,122.176188 112.202572,117.024914 C116.448414,120.392881 120.820993,121.751126 125.320307,121.09965 C129.819621,120.448174 134.712852,117.74829 140,113" id="Path-7" stroke="#333333" stroke-width="9.8" stroke-linecap="round"></path>
            <path d="M49,84.9400107 C54.2881856,87.642596 59.5369804,88.554987 64.7463843,87.6771836 C69.9557882,86.7993802 75.1228563,84.1318786 80.2475884,79.6746789 C84.8853931,82.4868558 89.673309,83.4769065 94.6113358,82.6448311 C99.5493631,81.8127556 104.624256,79.160786 109.836013,74.6889223 C113.679617,77.5456908 117.637951,78.6755291 121.711015,78.0784371 C125.784078,77.4813452 130.21374,75.1218661 135,71" id="Path-7" stroke="#333333" stroke-width="8.5" stroke-linecap="round"></path>
        </g>
    </g>
</svg>