<?xml version="1.0" encoding="UTF-8"?>
<svg width="403px" height="380px" viewBox="0 0 403 380" version="1.1" xmlns="http://www.w3.org/2000/svg" xmlns:xlink="http://www.w3.org/1999/xlink">
    <!-- Generator: Sketch 52.2 (67145) - http://www.bohemiancoding.com/sketch -->
    <title>icons</title>
    <desc>Created with Sketch.</desc>
    <g id="icons" stroke="none" stroke-width="1" fill="none" fill-rule="evenodd">
        <g id="TV" transform="translate(96.000000, 35.000000)">
            <rect id="Rectangle" stroke="#333333" stroke-width="16" x="8" y="57" width="196" height="196" rx="44"></rect>
            <path d="M105.808383,216.982983 C177.616767,216.982983 177.616767,216.982983 177.616767,149.831699 C177.616767,82.680415 177.616767,82.680415 105.808383,82.680415 C34,82.680415 34,82.680415 34,149.831699 C34,216.982983 34,216.982983 105.808383,216.982983 Z" id="Oval" stroke="#333333" stroke-width="16" fill="#636363"></path>
            <path d="M55.169635,200.093969 L88.0939695,167.169635 C90.9868162,164.276788 95.6770474,164.276788 98.5698941,167.169635 C101.462741,170.062482 101.462741,174.752713 98.5698941,177.64556 L65.6455596,210.569894 C62.7527129,213.462741 58.0624817,213.462741 55.169635,210.569894 C52.2767883,207.677047 52.2767883,202.986816 55.169635,200.093969 Z" id="Rectangle" fill="#FFFFFF"></path>
            <path d="M104.169635,152.659317 L108.659317,148.169635 C111.552164,145.276788 116.242395,145.276788 119.135242,148.169635 C122.028088,151.062482 122.028088,155.752713 119.135242,158.64556 L114.64556,163.135242 C111.752713,166.028088 107.062482,166.028088 104.169635,163.135242 C101.276788,160.242395 101.276788,155.552164 104.169635,152.659317 Z" id="Rectangle" fill="#FFFFFF"></path>
            <path d="M30.169635,193.59053 L64.5905302,159.169635 C67.4833769,156.276788 72.1736081,156.276788 75.0664548,159.169635 C77.9593015,162.062482 77.9593015,166.752713 75.0664548,169.64556 L40.6455596,204.066455 C37.7527129,206.959301 33.0624817,206.959301 30.169635,204.066455 C27.2767883,201.173608 27.2767883,196.483377 30.169635,193.59053 Z" id="Rectangle" fill="#FFFFFF"></path>
            <path d="M105.808383,216.982983 C177.616767,216.982983 177.616767,216.982983 177.616767,149.831699 C177.616767,82.680415 177.616767,82.680415 105.808383,82.680415 C34,82.680415 34,82.680415 34,149.831699 C34,216.982983 34,216.982983 105.808383,216.982983 Z" id="Oval" stroke="#333333" stroke-width="16"></path>
            <circle id="Oval" fill="#333333" cx="136.5" cy="234.5" r="5.5"></circle>
            <circle id="Oval" fill="#333333" cx="151.5" cy="234.5" r="5.5"></circle>
            <circle id="Oval" fill="#333333" cx="165.5" cy="234.5" r="5.5"></circle>
            <path d="M82.3796825,58.1280933 L128.665866,58.1280933 C130.507257,58.1280933 132,59.620836 132,61.4622275 L132,61.4622275 C132,61.8881777 131.654699,62.2334786 131.228749,62.2334786 C130.935558,62.2334786 130.667722,62.0672384 130.537607,61.8045005 C126.961707,54.5837631 124.274644,49.9024934 122.476427,47.7606862 C118.117868,42.5693266 113.478545,43.1529497 106,43.1529497 C98.4946959,43.1529497 92.679236,42.5321096 88.316285,47.7606862 C86.4921066,49.9467884 84.0545497,54.2708216 81.0036144,60.7327857 L81.0036259,60.7327911 C80.8793534,60.9960037 80.5652347,61.1086368 80.3020221,60.9843643 C80.1176282,60.897305 80,60.7116887 80,60.5077758 L80,60.5077758 C80,59.1935135 81.0654202,58.1280933 82.3796825,58.1280933 Z" id="Rectangle" fill="#333333"></path>
            <rect id="Rectangle" fill="#333333" transform="translate(82.748737, 24.748737) rotate(45.000000) translate(-82.748737, -24.748737) " x="50.2487373" y="22.2487373" width="65" height="5" rx="2.5"></rect>
            <rect id="Rectangle" fill="#333333" transform="translate(126.748737, 24.748737) rotate(-45.000000) translate(-126.748737, -24.748737) " x="94.2487373" y="22.2487373" width="65" height="5" rx="2.5"></rect>
        </g>
    </g>
</svg>